<svg xmlns="http://www.w3.org/2000/svg" viewBox="0 0 258.15 84.53"><defs><style>.cls-1{fill:#fc1b1b;}.cls-2{fill:#1c8b1c;}.cls-3{fill:none;}.cls-4{fill:#16292f;}</style></defs><g id="Layer_2" data-name="Layer 2"><g id="Layer_1-2" data-name="Layer 1"><path class="cls-1" d="M95.55.42c-.35,0-.7.28-1.12.42a12.76,12.76,0,0,1-2.87.29C89.94,1.2,75.7,1.2,73,1.2c-1,0-2.6-.07-4.42-.14S64.76,1,62.93,1c-1,0-1.62.15-1.62.71s.5.56,1.19.56a14.44,14.44,0,0,1,2.74.21c2.32.49,2.88,1.61,3,4s.14,4.21.14,14.87V31.58q4.3-.7,8.84-1.31V28c0-.5.14-.64.49-.64,1.2,0,8.63,0,10.38.22a4.68,4.68,0,0,1,2.6,1.12l2.83-.28c0-.63.08-1.21.12-1.62.21-2.17.56-3.92.56-4.34s-.14-.63-.42-.63-.56.28-.91.69a3.69,3.69,0,0,1-3,1.27c-1,.06-2,.06-3.16.06l-9,.08c-.42,0-.49-.22-.49-.63V5.76c0-.78.21-1,.63-1L88.68,5c2.66.08,4.13,1.13,4.62,2.11a6.76,6.76,0,0,1,.43,2.67c.07.77.21,1.12.7,1.12s.63-.43.7-1c.14-.84.28-5,.35-5.69.22-1.82.56-2.66.56-3.15S95.84.42,95.55.42Z"/><path class="cls-1" d="M139.19.42c-.35,0-.7.28-1.12.42a12.79,12.79,0,0,1-2.88.29c-1.61.07-15.86.07-18.52.07-1,0-2.59-.07-4.42-.14S108.39,1,106.57,1c-1.06,0-1.61.15-1.61.71s.49.56,1.19.56a14.32,14.32,0,0,1,2.73.21c2.32.49,2.88,1.61,3,4s.14,4.21.14,14.87V27.2c8.1-.34,16.52-.42,25.24-.19,0-.08,0-.14,0-.21.21-2.17.56-3.92.56-4.34s-.14-.63-.42-.63c-.43,0-.57.28-.91.69a3.69,3.69,0,0,1-3,1.27c-1,.06-2,.06-3.16.06l-9,.08c-.42,0-.49-.22-.49-.63V5.76c0-.78.21-1,.63-1l10.8.2c2.68.08,4.15,1.13,4.64,2.11a6.91,6.91,0,0,1,.42,2.67c.07.77.21,1.12.7,1.12s.63-.43.7-1c.14-.84.28-5,.35-5.69.21-1.82.56-2.66.56-3.15S139.47.42,139.19.42Z"/><path class="cls-1" d="M195.6,1.9c-2.1-.21-4.35-.84-7-1.2A69.64,69.64,0,0,0,178.41,0C168,0,161.29,2.81,156.24,7.44A26.38,26.38,0,0,0,148,26.66c0,.27,0,.52,0,.79,3.28.18,6.6.4,10,.68-.05-.7-.08-1.43-.08-2.16,0-6.81,1.33-13.48,6.46-18.18,3.09-2.81,7.08-4.35,13.19-4.35,6.46,0,11.93,1.9,14.24,4.35a10.05,10.05,0,0,1,2.74,6.45c0,1,.14,1.55.7,1.55s.77-.56.84-1.61c.14-1.41.07-5.27.21-7.58s.35-3.3.35-3.86S196.37,2,195.6,1.9Z"/><path class="cls-2" d="M83.83,56.72a30,30,0,0,1-3.51-.28c-2.1-.28-2.52-1.83-2.73-3.86-.34-2.81-.35-7.74-.35-14-2.93.29-5.88.63-8.84,1,0,5.83,0,10.38-.35,13-.28,2-.63,3.58-2,3.86a11.42,11.42,0,0,1-2.52.28c-.77,0-1.05.21-1.05.56,0,.56.49.7,1.47.7,2.67,0,7.09-.21,8.91-.21s6.25.21,10.67.21c1.05,0,1.54-.21,1.54-.7S84.74,56.72,83.83,56.72Z"/><path class="cls-2" d="M127.48,56.72a29.47,29.47,0,0,1-3.51-.28c-2.11-.28-2.53-1.83-2.74-3.86-.35-2.94-.35-8.21-.35-14.94V36.25c-2.92,0-5.87,0-8.84.14v1.25c0,6.73,0,12-.35,14.94-.28,2-.63,3.58-2,3.86a11.52,11.52,0,0,1-2.53.28c-.77,0-1.06.21-1.06.56,0,.56.5.7,1.48.7,2.66,0,7.08-.21,8.91-.21s6.24.21,10.66.21c1,0,1.55-.21,1.55-.7S128.39,56.72,127.48,56.72Z"/><path class="cls-2" d="M196.16,44.94c-.56,0-.7.28-.91,1.39A11.68,11.68,0,0,1,192.87,51c-2.81,3.22-6.6,3.92-12.85,3.92-7.85,0-18-5.77-21.14-17.4q-5.06-.36-10.29-.62a25,25,0,0,0,8.14,14.45C163.12,56.86,171.18,59,180.8,59c4.49,0,9.82-.49,12.62-1.62a2.48,2.48,0,0,0,1.83-2A67.18,67.18,0,0,0,196.79,46C196.79,45.42,196.65,44.94,196.16,44.94Z"/><path class="cls-2" d="M0,54.37S115.7,2,256.73,54.37C256.73,54.37,128.6,14.18,0,54.37Z"/><path class="cls-3" d="M93.54,32.37l-2.83.28"/><path class="cls-4" d="M210.42,1.47a7.81,7.81,0,1,0,7.81,7.81A7.81,7.81,0,0,0,210.42,1.47Zm0,14.59a6.78,6.78,0,1,1,6.78-6.78A6.79,6.79,0,0,1,210.42,16.06Z"/><path class="cls-4" d="M214.34,13.05H212.6l-2.27-2.6h-1.41v2.6h-1.46V5.27h3.69A2.57,2.57,0,0,1,214,7.86a2.31,2.31,0,0,1-2,2.44L214.34,13Zm-5.42-6.4V9.13h2.23a1.24,1.24,0,1,0,0-2.48Z"/><path class="cls-2" d="M2.88,73v4h5v2h-5v5.46H.38V71H8.83v2Z"/><path class="cls-2" d="M16.26,82.37a3.3,3.3,0,0,0,1.29-.24,2.66,2.66,0,0,0,1-.68,3,3,0,0,0,.6-1A4.36,4.36,0,0,0,19.32,79V71h2.49v8a6.37,6.37,0,0,1-.38,2.21,5,5,0,0,1-2.85,2.9,6.31,6.31,0,0,1-2.32.41,6.36,6.36,0,0,1-2.33-.41A5.13,5.13,0,0,1,12.19,83a5,5,0,0,1-1.1-1.75A6.15,6.15,0,0,1,10.7,79V71h2.49v8a4.36,4.36,0,0,0,.21,1.39,3.15,3.15,0,0,0,.6,1.06,2.79,2.79,0,0,0,1,.68A3.3,3.3,0,0,0,16.26,82.37Z"/><path class="cls-2" d="M34,73h-4V84.38H27.45V73h-4V71H34Z"/><path class="cls-2" d="M41.14,82.37a3.3,3.3,0,0,0,1.29-.24,2.66,2.66,0,0,0,1-.68,2.84,2.84,0,0,0,.59-1A4.36,4.36,0,0,0,44.19,79V71h2.5v8a6.15,6.15,0,0,1-.39,2.21,4.9,4.9,0,0,1-2.85,2.9,6.25,6.25,0,0,1-2.31.41,6.32,6.32,0,0,1-2.33-.41A5.08,5.08,0,0,1,37.06,83,5.26,5.26,0,0,1,36,81.22,6.37,6.37,0,0,1,35.58,79V71h2.49v8a4.36,4.36,0,0,0,.21,1.39,3.15,3.15,0,0,0,.6,1.06,2.66,2.66,0,0,0,1,.68A3.31,3.31,0,0,0,41.14,82.37Z"/><path class="cls-2" d="M60,84.38H57.71a1,1,0,0,1-.93-.5L54,79.59a1,1,0,0,0-.35-.34,1.19,1.19,0,0,0-.56-.1H52v5.23H49.5V71h4.09a8.4,8.4,0,0,1,2.34.29,4.36,4.36,0,0,1,1.6.79,3,3,0,0,1,.92,1.22,3.94,3.94,0,0,1,.3,1.56,4.18,4.18,0,0,1-.2,1.28A3.47,3.47,0,0,1,58,77.21a3.79,3.79,0,0,1-.92.86,4.55,4.55,0,0,1-1.26.58,3.72,3.72,0,0,1,.45.33,2.78,2.78,0,0,1,.37.45Zm-6.41-7a3.8,3.8,0,0,0,1.23-.18,2.39,2.39,0,0,0,.86-.49,1.84,1.84,0,0,0,.5-.73,2.42,2.42,0,0,0,.17-.94,1.88,1.88,0,0,0-.67-1.56,3.18,3.18,0,0,0-2-.55H52v4.45Z"/><path class="cls-2" d="M63.92,73v3.71h4.69V78.6H63.92v3.79h6v2H61.42V71h8.45v2Z"/><path class="cls-2" d="M79.08,73v4h5v2h-5v5.46H76.57V71H85v2Z"/><path class="cls-2" d="M89.56,84.38h-2.5V71h2.5Z"/><path class="cls-2" d="M103.85,71v13.4h-1.28a1,1,0,0,1-.49-.1,1,1,0,0,1-.39-.33L94.7,75c0,.41,0,.79,0,1.13v8.23H92.56V71h1.3l.28,0a.65.65,0,0,1,.2,0,.88.88,0,0,1,.17.12,2.09,2.09,0,0,1,.19.21l7,9c0-.22,0-.43,0-.64s0-.4,0-.58V71Z"/><path class="cls-2" d="M118.31,84.38h-1.93a.79.79,0,0,1-.52-.16,1,1,0,0,1-.31-.41l-1-2.73H109l-1,2.73a.84.84,0,0,1-.29.39.79.79,0,0,1-.53.18h-1.94L110.51,71h2.54Zm-4.4-5.06-1.63-4.45c-.08-.2-.16-.44-.25-.71s-.17-.56-.26-.88c-.08.32-.16.61-.25.89s-.17.51-.25.71l-1.62,4.44Z"/><path class="cls-2" d="M131,71v13.4h-1.28a1.06,1.06,0,0,1-.5-.1,1,1,0,0,1-.38-.33l-7-8.93c0,.41.06.79.06,1.13v8.23h-2.2V71H121l.27,0a.53.53,0,0,1,.2,0,.94.94,0,0,1,.18.12l.18.21,7,9c0-.22,0-.43,0-.64s0-.4,0-.58V71Z"/><path class="cls-2" d="M143.18,81.22a.5.5,0,0,1,.36.16l1,1.06a5.33,5.33,0,0,1-2,1.55,6.92,6.92,0,0,1-2.86.54A6.71,6.71,0,0,1,137,84a5.81,5.81,0,0,1-2-1.42,6.2,6.2,0,0,1-1.29-2.17,8.09,8.09,0,0,1-.45-2.75,7.65,7.65,0,0,1,.48-2.76A6.45,6.45,0,0,1,135,72.75a6.22,6.22,0,0,1,2.09-1.41,6.86,6.86,0,0,1,2.69-.51,6.57,6.57,0,0,1,2.59.49,6.25,6.25,0,0,1,1.94,1.26l-.84,1.15a.72.72,0,0,1-.19.2A.58.58,0,0,1,143,74a.5.5,0,0,1-.28-.08,3,3,0,0,1-.33-.19l-.41-.26a3.76,3.76,0,0,0-.53-.25,4,4,0,0,0-.71-.19,4.36,4.36,0,0,0-.93-.08,4,4,0,0,0-1.65.32,3.55,3.55,0,0,0-1.28.92,4.32,4.32,0,0,0-.84,1.49,6.37,6.37,0,0,0-.29,2,5.65,5.65,0,0,0,.32,2,4.37,4.37,0,0,0,.86,1.48,3.8,3.8,0,0,0,1.29.93,4.08,4.08,0,0,0,1.6.32,6.46,6.46,0,0,0,.92-.06,4.23,4.23,0,0,0,.76-.18,3,3,0,0,0,.65-.31,3.68,3.68,0,0,0,.62-.46,1.15,1.15,0,0,1,.19-.14A.54.54,0,0,1,143.18,81.22Z"/><path class="cls-2" d="M148.74,73v3.71h4.69V78.6h-4.69v3.79h5.95v2h-8.45V71h8.45v2Z"/><path class="cls-2" d="M170.59,81.22a.46.46,0,0,1,.36.16l1,1.06a5.44,5.44,0,0,1-2,1.55,6.89,6.89,0,0,1-2.86.54,6.74,6.74,0,0,1-2.68-.51,5.86,5.86,0,0,1-2-1.42,6.07,6.07,0,0,1-1.3-2.17,8.09,8.09,0,0,1-.45-2.75,7.65,7.65,0,0,1,.49-2.76,6.42,6.42,0,0,1,1.35-2.17,6.32,6.32,0,0,1,2.09-1.41,6.9,6.9,0,0,1,2.69-.51,6.62,6.62,0,0,1,2.6.49,6.09,6.09,0,0,1,1.93,1.26l-.83,1.15a.9.9,0,0,1-.19.2.61.61,0,0,1-.32.08.53.53,0,0,1-.29-.08,2.23,2.23,0,0,1-.32-.19l-.41-.26a4.56,4.56,0,0,0-.54-.25,3.82,3.82,0,0,0-.71-.19,4.36,4.36,0,0,0-.93-.08,4,4,0,0,0-1.64.32,3.59,3.59,0,0,0-1.29.92,4.3,4.3,0,0,0-.83,1.49,6.08,6.08,0,0,0-.3,2,5.89,5.89,0,0,0,.32,2,4.39,4.39,0,0,0,.87,1.48,3.62,3.62,0,0,0,1.29.93,4,4,0,0,0,1.59.32,6.36,6.36,0,0,0,.92-.06,4,4,0,0,0,.76-.18,3.31,3.31,0,0,0,.66-.31,4.13,4.13,0,0,0,.62-.46.85.85,0,0,1,.19-.14A.54.54,0,0,1,170.59,81.22Z"/><path class="cls-2" d="M186.14,77.68a7.4,7.4,0,0,1-.49,2.73,6.19,6.19,0,0,1-3.51,3.6,7.66,7.66,0,0,1-5.55,0,6.28,6.28,0,0,1-2.15-1.43,6.49,6.49,0,0,1-1.38-2.17,7.85,7.85,0,0,1,0-5.46,6.59,6.59,0,0,1,1.38-2.17,6.28,6.28,0,0,1,2.15-1.43,7.27,7.27,0,0,1,2.77-.52,7.43,7.43,0,0,1,1.92.24,6.8,6.8,0,0,1,1.64.67,5.76,5.76,0,0,1,1.35,1.05,6.26,6.26,0,0,1,1,1.37,6.56,6.56,0,0,1,.63,1.65A7.6,7.6,0,0,1,186.14,77.68Zm-2.55,0a6.44,6.44,0,0,0-.29-2,4.14,4.14,0,0,0-.85-1.48,3.62,3.62,0,0,0-1.33-.94,5,5,0,0,0-3.53,0,3.7,3.7,0,0,0-1.33.94,4.14,4.14,0,0,0-.85,1.48,6.14,6.14,0,0,0-.3,2,6.06,6.06,0,0,0,.3,2,4.14,4.14,0,0,0,.85,1.48,3.56,3.56,0,0,0,1.33.93,4.89,4.89,0,0,0,3.53,0,3.48,3.48,0,0,0,1.33-.93,4.14,4.14,0,0,0,.85-1.48A6.35,6.35,0,0,0,183.59,77.68Z"/><path class="cls-2" d="M199.41,84.38h-1.93a.82.82,0,0,1-.53-.16,1,1,0,0,1-.3-.41l-1-2.73H190.1l-1,2.73a.84.84,0,0,1-.29.39.79.79,0,0,1-.53.18h-1.95L191.61,71h2.53ZM195,79.32l-1.63-4.45c-.08-.2-.17-.44-.25-.71s-.18-.56-.26-.88c-.08.32-.17.61-.25.89s-.17.51-.25.71l-1.63,4.44Z"/><path class="cls-2" d="M210,81.22a.5.5,0,0,1,.36.16l1,1.06a5.29,5.29,0,0,1-2,1.55,7.57,7.57,0,0,1-5.54,0,5.86,5.86,0,0,1-2-1.42,6.2,6.2,0,0,1-1.29-2.17,8.09,8.09,0,0,1-.45-2.75,7.65,7.65,0,0,1,.48-2.76,6.29,6.29,0,0,1,1.36-2.17A6.22,6.22,0,0,1,204,71.34a6.85,6.85,0,0,1,2.68-.51,6.59,6.59,0,0,1,2.6.49,6.09,6.09,0,0,1,1.93,1.26l-.83,1.15a.72.72,0,0,1-.19.2.58.58,0,0,1-.32.08.55.55,0,0,1-.29-.08l-.32-.19-.41-.26a3.44,3.44,0,0,0-.54-.25,3.92,3.92,0,0,0-.7-.19,4.39,4.39,0,0,0-.94-.08,4,4,0,0,0-1.64.32,3.47,3.47,0,0,0-1.28.92,4.32,4.32,0,0,0-.84,1.49,6.09,6.09,0,0,0-.29,2,5.65,5.65,0,0,0,.32,2,4.37,4.37,0,0,0,.86,1.48,3.8,3.8,0,0,0,1.29.93,4,4,0,0,0,1.59.32,6.61,6.61,0,0,0,.93-.06,4.44,4.44,0,0,0,.76-.18,3,3,0,0,0,.65-.31,3.68,3.68,0,0,0,.62-.46,1.15,1.15,0,0,1,.19-.14A.54.54,0,0,1,210,81.22Z"/><path class="cls-2" d="M224.35,71v13.4h-2.5V78.52h-6.29v5.86h-2.51V71h2.51v5.77h6.29V71Z"/><path class="cls-2" d="M229.83,84.38h-2.5V71h2.5Z"/><path class="cls-2" d="M244.12,71v13.4h-1.28a1.09,1.09,0,0,1-.5-.1A1,1,0,0,1,242,84L235,75c0,.41.05.79.05,1.13v8.23h-2.19V71h1.3l.27,0a.65.65,0,0,1,.21,0,.88.88,0,0,1,.17.12,2.09,2.09,0,0,1,.19.21l7,9c0-.22,0-.43-.05-.64s0-.4,0-.58V71Z"/><path class="cls-2" d="M258.15,77.66v5.42a7.11,7.11,0,0,1-2.18,1.1,8.57,8.57,0,0,1-2.47.35,8.26,8.26,0,0,1-3-.51,6.54,6.54,0,0,1-2.26-1.42,6.16,6.16,0,0,1-1.46-2.17,7.43,7.43,0,0,1-.5-2.75,7.54,7.54,0,0,1,.49-2.77,6,6,0,0,1,3.58-3.57,7.79,7.79,0,0,1,2.89-.51,9.18,9.18,0,0,1,1.53.13,8.06,8.06,0,0,1,1.31.36,5.74,5.74,0,0,1,1.11.55,7.31,7.31,0,0,1,.92.72l-.72,1.13a.7.7,0,0,1-.43.33.8.8,0,0,1-.59-.14l-.61-.35a3.88,3.88,0,0,0-.68-.31,7.35,7.35,0,0,0-.84-.21,5.8,5.8,0,0,0-1.08-.08,4.64,4.64,0,0,0-1.79.33,3.79,3.79,0,0,0-1.37.95,4.29,4.29,0,0,0-.87,1.5,5.68,5.68,0,0,0-.31,1.94,5.92,5.92,0,0,0,.33,2,4.19,4.19,0,0,0,.93,1.53,4,4,0,0,0,1.44,1,5.12,5.12,0,0,0,1.88.33,5.39,5.39,0,0,0,1.33-.16,7.08,7.08,0,0,0,1.13-.43V79.53h-1.68a.52.52,0,0,1-.38-.13.44.44,0,0,1-.13-.33V77.66Z"/></g></g></svg>